<?xml version="1.0" standalone="no"?>
<!DOCTYPE svg PUBLIC "-//W3C//DTD SVG 20010904//EN"
 "http://www.w3.org/TR/2001/REC-SVG-20010904/DTD/svg10.dtd">
<svg version="1.0" xmlns="http://www.w3.org/2000/svg"
 width="1424.000000pt" height="1024.000000pt" viewBox="0 0 1424.000000 1024.000000"
 preserveAspectRatio="xMidYMid meet">
<metadata>
Created by potrace 1.13, written by Peter Selinger 2001-2015
</metadata>
<g transform="translate(0.000000,1024.000000) scale(0.100000,-0.100000)"
fill="#000000" stroke="none">
<path d="M8038 7662 c-11 -38 -29 -68 -52 -91 -35 -34 -36 -35 -36 -10 0 13
-5 31 -10 39 -7 12 -10 8 -10 -15 0 -16 -9 -44 -19 -61 -21 -34 -108 -97 -123
-88 -5 3 20 37 56 75 45 47 69 81 76 110 13 48 6 65 -10 23 -14 -38 -53 -94
-64 -94 -5 0 -15 8 -22 18 -12 15 -13 14 -8 -14 4 -20 1 -34 -10 -43 -21 -18
-32 -8 -40 38 -10 64 -21 55 -21 -17 0 -55 -3 -67 -17 -70 -14 -3 -19 6 -24
38 -7 43 -40 100 -62 108 -8 2 -5 -8 8 -30 13 -22 20 -50 20 -84 0 -45 -4 -54
-36 -85 -20 -18 -50 -54 -67 -79 -16 -25 -31 -46 -32 -48 -5 -7 -135 122 -135
134 0 8 -4 14 -10 14 -23 0 -7 -32 50 -102 33 -40 80 -112 105 -159 25 -48 61
-106 80 -129 36 -44 44 -62 23 -58 -7 2 -14 -7 -16 -19 -2 -16 13 -38 56 -81
l59 -59 6 -83 c4 -46 16 -140 28 -208 12 -70 18 -138 15 -157 -14 -73 -86
-126 -206 -151 -86 -18 -778 -18 -802 0 -32 24 -49 66 -55 135 -3 39 -9 71
-13 71 -13 0 -60 -117 -60 -151 0 -27 9 -42 50 -79 l49 -47 -31 -23 c-41 -30
-90 -140 -118 -263 -24 -107 -47 -145 -109 -176 -45 -23 -127 -41 -189 -41
-62 0 -63 -1 -113 -95 -31 -58 -154 -180 -215 -215 -29 -16 -55 -39 -59 -50
-5 -17 -12 -20 -31 -16 -47 12 -114 -42 -114 -91 0 -27 2 -28 42 -7 47 24 158
63 158 55 0 -23 -34 -49 -70 -54 -47 -6 -73 -25 -91 -69 -20 -49 4 -52 80 -10
36 20 87 46 113 59 35 18 72 52 141 136 108 128 179 198 222 215 17 6 100 29
187 51 176 45 315 98 371 142 l37 30 103 -20 c214 -43 387 -51 589 -29 l107
11 39 -27 c68 -47 92 -49 285 -21 240 34 260 24 103 -51 -51 -24 -117 -48
-146 -54 -30 -6 -72 -22 -93 -37 -35 -24 -41 -26 -73 -14 -48 17 -98 0 -119
-41 -32 -65 -27 -68 95 -68 180 0 179 0 438 172 118 79 132 92 147 132 18 48
15 106 -8 124 -6 5 -78 16 -159 23 l-147 13 6 25 c4 14 7 130 7 256 1 247 -8
315 -59 467 -36 104 -34 111 28 146 49 27 79 38 158 56 37 8 53 49 34 86 -17
33 -22 35 -135 51 -47 6 -94 18 -106 25 -11 7 -42 15 -68 19 -31 5 -52 15 -65
31 -12 16 -25 22 -35 18 -33 -13 -56 24 -56 87 0 32 -4 61 -10 64 -6 4 -10
-10 -10 -34 0 -53 -17 -61 -36 -16 -20 48 -28 123 -20 170 9 44 61 104 136
155 92 62 150 141 165 222 11 58 -9 51 -27 -10z m-310 -304 c-20 -64 -21 -156
-2 -292 7 -47 7 -48 -15 -37 -34 19 -100 108 -112 153 -19 71 -5 106 67 176
36 34 69 62 73 62 5 0 0 -28 -11 -62z m-1579 -1979 c-16 -31 -96 -107 -131
-125 -28 -15 -29 -14 -19 4 12 22 142 142 154 142 4 0 3 -10 -4 -21z"/>
<path d="M10415 4601 c-80 -21 -134 -72 -154 -146 -14 -53 -15 -577 0 -644 14
-69 60 -128 116 -153 38 -17 61 -20 124 -16 103 6 149 35 187 116 27 57 27 58
30 339 5 373 -7 427 -107 482 -46 25 -142 36 -196 22z m95 -171 c13 -8 15 -53
18 -288 3 -300 -1 -332 -42 -332 -48 0 -51 15 -54 283 -2 138 -1 265 3 283 10
53 41 76 75 54z"/>
<path d="M3520 4125 l0 -475 195 0 195 0 0 90 0 90 -100 0 -100 0 0 110 0 110
90 0 90 0 0 90 0 90 -90 0 -91 0 3 93 3 92 93 3 92 3 0 89 0 90 -190 0 -190 0
0 -475z"/>
<path d="M4290 4588 c0 -7 25 -221 56 -475 l57 -463 128 0 128 0 6 33 c3 17
28 217 55 442 27 226 52 425 55 443 l6 32 -91 0 c-49 0 -90 -3 -90 -7 0 -5
-14 -147 -30 -317 -28 -280 -39 -364 -41 -295 0 13 -14 157 -32 319 l-32 295
-88 3 c-66 2 -87 0 -87 -10z"/>
<path d="M5170 4125 l0 -475 195 0 195 0 0 90 0 90 -100 0 -100 0 0 110 0 110
90 0 90 0 0 90 0 90 -90 0 -91 0 3 93 3 92 93 3 92 3 0 89 0 90 -190 0 -190 0
0 -475z"/>
<path d="M5970 4125 l0 -475 95 0 95 0 0 215 0 215 23 0 c44 0 47 -12 47 -227
l0 -203 96 0 95 0 -3 208 c-4 221 -9 249 -54 273 l-24 12 28 17 c45 28 57 70
57 200 0 104 -3 119 -25 160 -40 72 -66 80 -262 80 l-168 0 0 -475z m260 290
c18 -22 24 -88 10 -129 -10 -32 -15 -36 -46 -36 l-34 0 0 90 0 90 29 0 c16 0
34 -7 41 -15z"/>
<path d="M6830 4125 l0 -475 195 0 196 0 -3 78 -3 77 -97 3 -98 3 0 394 0 395
-95 0 -95 0 0 -475z"/>
<path d="M7676 4588 c-3 -7 -23 -213 -46 -458 -22 -245 -42 -453 -44 -462 -4
-16 6 -18 90 -18 l94 0 0 59 c0 88 3 91 71 91 58 0 59 0 59 -29 0 -15 3 -49 6
-75 l7 -46 88 0 88 0 -5 33 c-7 47 -84 871 -84 896 0 20 -4 21 -160 21 -120 0
-162 -3 -164 -12z m184 -377 c26 -290 29 -261 -26 -261 l-46 0 6 53 c3 28 10
129 16 222 11 171 17 221 25 213 3 -2 14 -105 25 -227z"/>
<path d="M8480 4125 l0 -475 95 0 95 0 2 227 3 227 46 -224 45 -225 92 -3 92
-3 0 476 0 475 -90 0 -90 0 -1 -222 c0 -135 -4 -213 -9 -198 -5 14 -25 114
-46 223 l-37 197 -98 0 -99 0 0 -475z"/>
<path d="M9370 4126 l0 -476 160 0 c176 0 206 7 252 56 53 57 59 111 56 446
-3 302 -3 304 -28 352 -41 80 -71 90 -272 94 l-168 4 0 -476z m258 298 c22
-15 22 -17 22 -299 0 -312 -1 -315 -61 -315 l-29 0 0 315 0 315 23 0 c12 0 33
-7 45 -16z"/>
<path d="M5735 3211 c-66 -16 -94 -47 -118 -131 -12 -42 -15 -45 -50 -48 -20
-2 -37 -9 -37 -15 0 -7 -3 -29 -6 -49 -6 -37 -6 -38 25 -38 17 0 31 -1 31 -3
0 -2 -20 -89 -45 -195 -25 -105 -45 -196 -45 -202 0 -5 24 -10 54 -10 l54 0
21 93 c12 50 34 143 48 205 l27 112 37 0 c35 0 37 2 48 44 6 25 11 47 11 50 0
3 -16 6 -35 6 -39 0 -40 3 -24 48 11 33 37 47 67 38 12 -4 25 6 45 35 l29 39
-36 15 c-38 16 -54 17 -101 6z"/>
<path d="M6744 3140 c-58 -26 -62 -30 -69 -69 -6 -39 -9 -41 -40 -41 -31 0
-35 -4 -44 -37 -15 -52 -15 -53 19 -53 17 0 30 -3 30 -7 0 -4 -10 -51 -22
-104 -20 -92 -21 -99 -5 -123 20 -30 65 -41 122 -29 37 8 40 11 43 46 3 31 0
37 -15 37 -33 0 -41 18 -31 63 24 112 27 117 58 117 34 0 36 3 45 53 7 36 7
37 -25 37 -25 0 -30 3 -26 18 10 33 27 115 24 117 -2 2 -31 -9 -64 -25z"/>
<path d="M5905 3021 c-103 -46 -152 -169 -105 -261 86 -168 350 -75 350 123 0
125 -122 194 -245 138z m119 -97 c24 -23 20 -88 -6 -118 -56 -63 -135 -32
-124 49 9 69 88 111 130 69z"/>
<path d="M6315 3026 c-122 -45 -172 -221 -86 -307 82 -81 247 -45 301 66 41
86 24 179 -42 228 -35 26 -119 32 -173 13z m116 -102 c7 -9 14 -34 14 -55 0
-79 -94 -125 -138 -67 -18 24 -19 32 -8 67 6 22 21 47 34 56 28 20 81 19 98
-1z"/>
<path d="M7627 3026 c-143 -51 -179 -259 -57 -331 49 -28 140 -27 197 3 23 12
45 27 49 33 3 6 -8 25 -25 42 -31 31 -31 31 -60 14 -51 -30 -109 -18 -124 26
-6 16 4 17 124 17 l131 0 -4 65 c-3 51 -9 70 -28 91 -49 52 -126 67 -203 40z
m120 -88 c26 -21 11 -28 -58 -28 -65 0 -70 2 -58 16 28 33 84 39 116 12z"/>
<path d="M8048 3031 c-91 -30 -149 -105 -150 -194 -1 -64 21 -111 65 -137 35
-22 106 -26 138 -10 13 7 19 7 19 0 0 -6 34 -10 89 -10 89 0 89 0 95 28 4 15
9 35 12 45 4 13 -1 17 -25 17 -18 0 -31 5 -31 13 0 6 11 59 25 117 14 58 25
111 25 118 0 10 -18 13 -67 12 -38 0 -90 1 -118 4 -27 3 -62 1 -77 -3z m100
-107 c25 -17 26 -24 11 -76 -23 -86 -149 -90 -149 -6 0 39 15 65 48 82 35 20
62 20 90 0z"/>
<path d="M6876 2999 c-9 -47 -7 -59 9 -59 8 0 15 -5 15 -11 0 -19 21 -203 26
-226 4 -20 10 -23 57 -23 l53 0 61 106 c69 119 65 121 79 -33 l7 -73 56 0 56
0 78 130 c57 95 83 130 98 130 10 0 19 6 19 14 0 7 3 28 6 45 l7 31 -85 0 -85
0 -10 -45 c-8 -37 -8 -45 4 -45 17 0 17 2 -22 -70 l-30 -54 -8 65 c-4 35 -10
83 -13 107 l-5 43 -57 -3 -57 -3 -54 -93 c-29 -51 -55 -92 -56 -90 -1 2 -5 24
-7 51 -4 33 -2 47 7 47 6 0 16 20 22 45 l10 45 -87 0 -87 0 -7 -31z"/>
<path d="M8393 2988 c-9 -43 -9 -43 23 -46 l31 -3 -28 -117 c-16 -64 -28 -123
-29 -129 0 -10 25 -13 95 -13 74 0 95 3 95 14 0 7 3 28 6 45 6 30 6 31 -30 31
-31 0 -36 3 -32 18 3 9 10 39 17 65 11 46 38 77 66 77 7 0 13 -7 13 -16 0 -12
10 -14 52 -12 l52 3 13 50 c7 28 13 56 13 63 0 16 -113 17 -143 1 -16 -9 -22
-9 -25 0 -2 7 -35 11 -92 11 l-89 0 -8 -42z"/>
<path d="M3520 2865 c0 -13 96 -15 805 -15 709 0 805 2 805 15 0 13 -96 15
-805 15 -709 0 -805 -2 -805 -15z"/>
<path d="M9110 2865 c0 -13 96 -15 805 -15 709 0 805 2 805 15 0 13 -96 15
-805 15 -709 0 -805 -2 -805 -15z"/>
</g>
</svg>
