<svg xmlns="http://www.w3.org/2000/svg" id="SvgjsSvg10049" width="4096" height="3280.277896596062" version="1.1" xmlns:xlink="http://www.w3.org/1999/xlink" xmlns:svgjs="http://svgjs.com/svgjs"><defs id="SvgjsDefs10050"></defs><g id="SvgjsG10051" transform="translate(328, 328) scale(34.4)" opacity="1"><defs id="SvgjsDefs3761"></defs><g id="SvgjsG3762" transform="scale(0.21358850039513871)" opacity="1"><g id="SvgjsG3763" class="LWu2LFgGl" transform="translate(95.77127790587778, -0.008645232630877847) scale(8.645232630882639)" light-content="false" non-strokable="false" fill="#0e8138"><path d="M14.44 15.319v5.254h3.12v-5.254L16 13.201z"></path><path d="M3.517 16.949V32l4.771-5.024h15.426L28.483 32V16.949L16 .001 3.517 16.949zm15.043 4.624h-5.12v-6.582L16 11.515l2.56 3.476v6.582z"></path></g><g id="SvgjsG3764" class="text" transform="translate(232.44, 356.69879895561354) scale(1)" light-content="false" fill="#303030"><path d="M-196.61 0L-198.52 -3.22C-200.45 -6.56 -202.9 -10.67 -205.87 -15.54C-208.84 -20.42 -210.97 -23.81 -212.26 -25.72L-197.2 -44.59L-207.45 -44.59L-223.12 -24.84L-223.12 -44.59L-232.44 -44.59L-232.44 0L-223.12 0L-223.12 -13.74L-218.53 -18.93C-216.98 -16.7 -215.35 -14.2 -213.62 -11.43C-211.89 -8.65 -210.29 -5.95 -208.83 -3.31C-208.57 -2.88 -208.37 -2.52 -208.21 -2.23C-208.06 -1.93 -207.93 -1.69 -207.83 -1.49C-207.48 -0.81 -207.2 -0.31 -206.98 0Z M-191.19 -44.59L-191.25 -19.13C-191.27 -12.84 -189.9 -8 -187.13 -4.61C-184.37 -1.23 -179.8 0.47 -173.44 0.47C-167.46 0.47 -162.95 -1.17 -159.9 -4.44C-156.86 -7.71 -155.33 -12.48 -155.33 -18.75L-155.33 -44.59L-164.5 -44.59L-164.5 -19.63C-164.5 -16.39 -164.83 -13.84 -165.48 -12C-166.14 -10.15 -167.09 -8.85 -168.34 -8.1C-169.59 -7.35 -171.2 -6.97 -173.17 -6.97C-175.22 -6.97 -176.88 -7.32 -178.15 -8.01C-179.42 -8.71 -180.39 -9.97 -181.04 -11.81C-181.69 -13.64 -182.02 -16.25 -182.02 -19.63L-181.96 -44.59Z M-140.95 -44.59L-145.46 -44.62L-145.46 0L-140.74 0C-136.43 0.27 -132.85 0.41 -130.02 0.41C-123.4 0.41 -118.7 -0.81 -115.93 -3.25C-113.15 -5.69 -111.77 -9.11 -111.77 -13.51C-111.77 -15.38 -112.15 -17.06 -112.92 -18.53C-113.7 -20 -114.77 -21.19 -116.13 -22.08C-117.5 -22.96 -119.06 -23.51 -120.82 -23.7C-119.43 -24.07 -118.24 -24.74 -117.23 -25.71C-116.23 -26.67 -115.46 -27.85 -114.93 -29.24C-114.4 -30.63 -114.14 -32.13 -114.14 -33.75C-114.14 -36.02 -114.73 -37.99 -115.9 -39.68C-117.07 -41.37 -118.87 -42.69 -121.3 -43.62C-123.74 -44.56 -126.79 -45.03 -130.46 -45.03C-131.94 -45.03 -134.04 -44.94 -136.76 -44.77C-138.75 -44.65 -140.15 -44.59 -140.95 -44.59ZM-124.8 -27.54C-126 -26.45 -127.94 -25.9 -130.63 -25.9C-131.49 -25.9 -132.51 -25.92 -133.68 -25.96C-134.85 -26 -135.7 -26.06 -136.23 -26.16L-136.23 -37.82C-135.94 -37.96 -135.26 -38.06 -134.21 -38.12C-133.15 -38.17 -132.24 -38.2 -131.46 -38.2C-128.7 -38.2 -126.61 -37.78 -125.17 -36.94C-123.74 -36.1 -123.02 -34.78 -123.02 -32.96C-123.02 -30.44 -123.61 -28.63 -124.8 -27.54ZM-123.3 -7.65C-124.69 -6.57 -126.85 -6.04 -129.76 -6.04C-131.14 -6.04 -132.48 -6.09 -133.75 -6.2C-135.03 -6.3 -135.86 -6.5 -136.23 -6.8L-136.23 -19.45C-135.84 -19.51 -134.95 -19.56 -133.56 -19.6C-132.18 -19.64 -130.92 -19.66 -129.79 -19.66C-126.82 -19.66 -124.64 -19.14 -123.27 -18.09C-121.89 -17.05 -121.2 -15.38 -121.2 -13.1C-121.2 -10.54 -121.9 -8.72 -123.3 -7.65Z M-76.61 -44.59L-103.8 -44.59L-103.8 0L-74.71 0L-74.71 -7.35L-94.48 -7.35L-94.48 -19.31L-80.77 -19.31L-80.77 -26.37L-94.48 -26.37L-94.48 -37.44L-76.61 -37.44Z M-57.3 -44.59L-66.68 -44.59L-66.68 0L-57.3 0Z M-9.46 -44.59L-18.13 -44.59L-18.13 -22.41L-17.29 -11.69L-20.65 -18.37L-37.27 -44.59L-45.91 -44.59L-45.91 0L-37.24 0L-37.24 -21.71L-38.23 -32.34L-34.72 -25.22L-18.81 0L-9.46 0Z M5.89 -44.59L-4.1 -44.59L12.48 0.18L20.39 0.18L36.8 -44.59L26.87 -44.59L18.98 -20.24L16.58 -11.75L14.21 -20.24Z M65.57 -9.43L68.55 0L78.72 0L62.11 -45.06L52.68 -45.06L36.21 0L46.23 0L49.19 -9.43ZM63.43 -16.14L51.27 -16.14L56.04 -31.44L57.33 -36.04L58.59 -31.44Z M88.21 -44.59L83.79 -44.59L83.79 0L88.3 0C89.28 0 90.62 0.07 92.31 0.21C95.09 0.38 97.18 0.47 98.58 0.47C103.12 0.47 107.06 -0.48 110.41 -2.37C113.75 -4.27 116.34 -7.01 118.15 -10.61C119.97 -14.2 120.88 -18.49 120.88 -23.47C120.88 -30.44 119.07 -35.78 115.44 -39.49C111.82 -43.2 106.35 -45.06 99.02 -45.06C96.93 -45.06 94.58 -44.96 91.96 -44.77C90.09 -44.65 88.84 -44.59 88.21 -44.59ZM107.89 -10.59C105.79 -8.02 102.88 -6.72 99.17 -6.68C96.51 -6.68 94.52 -6.86 93.19 -7.21L93.19 -37.62L94.37 -37.73C95.85 -37.93 97.11 -38.03 98.14 -38.03C101.13 -38.03 103.56 -37.53 105.44 -36.53C107.31 -35.54 108.72 -33.9 109.64 -31.63C110.57 -29.35 111.04 -26.3 111.04 -22.47C111.04 -17.12 109.99 -13.16 107.89 -10.59Z M156.5 -44.59L129.32 -44.59L129.32 0L158.41 0L158.41 -7.35L138.63 -7.35L138.63 -19.31L152.34 -19.31L152.34 -26.37L138.63 -26.37L138.63 -37.44L156.5 -37.44Z M201.01 0L199.16 -3.22C198.38 -4.57 197.42 -6.61 196.29 -9.35C195.23 -11.81 194.32 -13.75 193.55 -15.18C192.78 -16.6 191.88 -17.75 190.84 -18.63C193.26 -19.59 195.1 -21.11 196.36 -23.2C197.62 -25.29 198.25 -28.09 198.25 -31.58C198.25 -36.45 196.76 -39.91 193.78 -41.97C190.81 -44.03 186.94 -45.06 182.2 -45.06C180.52 -45.06 178.96 -45.03 177.54 -44.97C176.11 -44.91 174.86 -44.84 173.79 -44.77C172.5 -44.65 171.36 -44.59 170.36 -44.59L166.05 -44.59L166.05 0L175.37 0L175.37 -16.85C177.3 -16.85 179.27 -16.88 181.26 -16.96C182.2 -16.96 183.01 -16.58 183.69 -15.82C184.37 -15.06 184.95 -14.12 185.41 -12.99C185.86 -11.87 186.4 -10.38 187 -8.53C187.43 -7.24 187.79 -6.21 188.07 -5.43C188.35 -4.66 188.66 -3.93 188.99 -3.22L189.4 -2.34C189.64 -1.82 189.85 -1.36 190.05 -0.98C190.24 -0.6 190.44 -0.27 190.63 0ZM175.37 -23.55L175.37 -37.59C176.86 -37.94 178.76 -38.12 181.08 -38.12C183.27 -38.12 184.96 -37.81 186.15 -37.19C187.34 -36.58 188.15 -35.78 188.57 -34.79C188.99 -33.8 189.2 -32.65 189.2 -31.32C189.2 -29.03 188.57 -27.14 187.32 -25.63C186.07 -24.13 184.13 -23.38 181.49 -23.38C178.39 -23.38 176.35 -23.44 175.37 -23.55Z M208.36 -9.64L207.04 -2.17C207.63 -1.8 208.63 -1.41 210.04 -1C211.46 -0.59 213.09 -0.24 214.94 0.04C216.78 0.33 218.61 0.47 220.43 0.47C223.48 0.47 226.16 -0.01 228.47 -0.98C230.79 -1.95 232.58 -3.36 233.85 -5.23C235.12 -7.09 235.75 -9.34 235.75 -11.95C235.75 -14.24 235.25 -16.2 234.24 -17.84C233.24 -19.48 231.9 -20.89 230.23 -22.08C228.56 -23.26 226.32 -24.59 223.51 -26.07C221.44 -27.17 219.89 -28.05 218.88 -28.73C217.86 -29.4 217.09 -30.11 216.58 -30.85C216.06 -31.59 215.8 -32.48 215.8 -33.52C215.8 -34.98 216.32 -36.11 217.37 -36.9C218.41 -37.69 220.12 -38.09 222.48 -38.09C224.49 -38.09 226.28 -37.82 227.86 -37.29C229.43 -36.77 230.88 -36.08 232.21 -35.24L233.73 -42.48C232.75 -43.11 231.23 -43.69 229.15 -44.24C227.07 -44.79 224.76 -45.06 222.22 -45.06C219.27 -45.06 216.63 -44.65 214.29 -43.84C211.96 -43.03 210.1 -41.73 208.73 -39.95C207.35 -38.16 206.66 -35.86 206.66 -33.05C206.66 -29.77 207.69 -27.04 209.74 -24.87C211.79 -22.71 214.45 -20.81 217.73 -19.19C220.2 -17.98 222.01 -17 223.17 -16.26C224.33 -15.52 225.16 -14.78 225.64 -14.05C226.13 -13.32 226.38 -12.42 226.38 -11.37C226.38 -9.8 225.89 -8.66 224.91 -7.92C223.94 -7.19 222.25 -6.83 219.84 -6.83C217.64 -6.83 215.53 -7.1 213.52 -7.65C211.5 -8.19 209.79 -8.86 208.36 -9.64Z"></path></g></g></g></svg>